[img]http://img15.imageshack.us/img15/38/badol.jpg[/img]
[code]
Bad Teacher 2011 R5 LiNE XViD - IMAGiNE

Ripper ...........: IMAGiNE                                        IMDB Rating.......:6.0/10                             
Video Codec.......: XVID                                         Release Date......:03/08/11
Audio Codec.......:MP3                                           Theatre Date......:24/06/11
Audio Bitrate.....:128                                              Runtime.......:1h 28mn
Subtitles.........:NIL                                                 Language..........:ENGLISH
Resolution...... 720 x 384                                      IMDb URL.......... http://www.imdb.com/title/tt1284575/


DETAILS:

Video
ID                               : 0
Format                           : MPEG-4 Visual
Format profile                   : Advanced Simple@L5
Format settings, BVOP            : 2
Format settings, QPel            : No
Format settings, GMC             : No warppoints
Format settings, Matrix          : Default (MPEG)
Muxing mode                      : Packed bitstream
Codec ID                         : XVID
Codec ID/Hint                    : XviD
Duration                         : 1h 28mn
Bit rate                         : 2 086 Kbps
Width                            : 720 pixels
Height                           : 384 pixels
Display aspect ratio             : 1.875
Frame rate                       : 25.000 fps
Color space                      : YU
Chroma subsampling               : 4:2:0
Bit depth                        : 8 bits
Scan type                        : Progressive
Compression mode                 : Lossy
Bits/(Pixel*Frame)               : 0.302
Stream size                      : 1.29 GiB (94%)
Writing library                  : XviD 64


Audio
ID                               : 1
Format                           : MPEG Audio
Format version                   : Version 1
Format profile                   : Layer 3
Mode                             : Joint stereo
Mode extension                   : MS Stereo
Codec ID                         : 55
Codec ID/Hint                    : MP3
Duration                         : 1h 28mn
Bit rate mode                    : Constant
Bit rate                         : 128 Kbps
Channel(s)                       : 2 channels
Sampling rate                    : 44.1 KHz
Compression mode                 : Lossy
Stream size                      : 80.8 MiB (6%)
Alignment                        : Split accross interleaves
Interleave, duration             : 40 ms (1.00 video frame)

Plot:
A comedy centered around a foul-mouthed, junior high teacher who, after being dumped by her sugar daddy, begins to woo a colleague -- a move that pits her against a well-loved teacher.

SOURCES:
VIDEO: ............. Bad.Teacher.2011.DVD.RELIZLAB Thanks 
AUDIO: ............ Thanks Matey 

NOTES:
IMAGiNE bringing you another release..........
Bad Teacher R5.........
Ok heres our R5.........
First we made a script to crop and resize and sharpen, 
Audio is nice LiNE we filtered synced and muxed to our encode Nothing missing or OOS BUT end credits have source audio 
Enjoy!
[/code]
Screens:
[img]http://img856.imageshack.us/img856/2688/31235513.png[/img]
[img]http://img231.imageshack.us/img231/3669/95847279.png[/img]
[img]http://img190.imageshack.us/img190/7685/57501280.png[/img]
[img]http://img508.imageshack.us/img508/8644/18631990.png[/img]